<?xml version="1.0" encoding="UTF-8"?>
<svg xmlns="http://www.w3.org/2000/svg" width="128" height="101" viewBox="0 0 128 101" fill="none">
  <path d="M85.8954 88.3694L76.3923 88.3793V82.0555H51.0349V88.4089L41.5298 88.4187C39.7825 88.4207 38.3661 89.831 38.3641 91.5727L38.3542 97.8314C38.3522 99.5771 39.7746 100.993 41.5278 100.991L85.8954 100.94C87.6426 100.938 89.0591 99.5278 89.0611 97.788L89.069 91.5293C89.071 89.7837 87.6486 88.3674 85.8954 88.3694ZM116.249 5.27443C115.73 2.23088 113.038 0 109.882 0H17.5393C14.3835 0 11.6913 2.23088 11.1722 5.27443C-0.339637 72.8163 0.325995 68.6583 0.324014 69.4315C0.318071 72.8479 3.15493 75.7435 6.78223 75.7435H120.641C124.252 75.7435 127.081 72.8716 127.097 69.473C127.101 68.6682 127.761 72.8163 116.249 5.27443ZM51.7916 12.6239H75.6296L77.565 31.5598H49.8561L51.7916 12.6239ZM36.9001 63.1196H14.4013L18.1673 41.0277H39.1605L36.9001 63.1196ZM40.1272 31.5598H19.7799L23.007 12.6239H42.0627L40.1272 31.5598ZM46.629 63.1196L48.8874 41.0277H78.5338L80.7922 63.1196H46.629ZM85.3585 12.6239H104.414L107.641 31.5598H87.294L85.3585 12.6239ZM90.5211 63.1196L88.2627 41.0277H109.256L113.022 63.1196H90.5211Z" fill="#314192"></path>
</svg>
